<svg width="48" height="48" viewBox="0 0 48 48" fill="none" xmlns="http://www.w3.org/2000/svg">
<path d="M23.3447 0.568563C23.7207 0.242352 24.2793 0.242351 24.6553 0.568563L28.8503 4.20809C29.0823 4.40937 29.3939 4.49288 29.6955 4.43456L35.1482 3.38012C35.6369 3.28561 36.1207 3.56494 36.2833 4.03545L38.0964 9.28485C38.1967 9.57516 38.4248 9.8033 38.7152 9.90357L43.9646 11.7167C44.4351 11.8793 44.7144 12.3631 44.6199 12.8518L43.5654 18.3045C43.5071 18.6061 43.5906 18.9177 43.7919 19.1497L47.4314 23.3447C47.7576 23.7207 47.7576 24.2793 47.4314 24.6553L43.7919 28.8503C43.5906 29.0823 43.5071 29.3939 43.5654 29.6955L44.6199 35.1482C44.7144 35.6369 44.4351 36.1207 43.9646 36.2833L38.7152 38.0964C38.4248 38.1967 38.1967 38.4248 38.0964 38.7152L36.2833 43.9646C36.1207 44.4351 35.6369 44.7144 35.1482 44.6199L29.6955 43.5654C29.3939 43.5071 29.0823 43.5906 28.8503 43.7919L24.6553 47.4314C24.2793 47.7576 23.7207 47.7576 23.3447 47.4314L19.1497 43.7919C18.9177 43.5906 18.6061 43.5071 18.3045 43.5654L12.8518 44.6199C12.3631 44.7144 11.8793 44.4351 11.7167 43.9646L9.90357 38.7152C9.8033 38.4248 9.57517 38.1967 9.28485 38.0964L4.03545 36.2833C3.56494 36.1207 3.28561 35.6369 3.38012 35.1482L4.43456 29.6955C4.49288 29.3939 4.40937 29.0823 4.20809 28.8503L0.568563 24.6553C0.242352 24.2793 0.242351 23.7207 0.568563 23.3447L4.20809 19.1497C4.40937 18.9177 4.49288 18.6061 4.43456 18.3045L3.38012 12.8518C3.28561 12.3631 3.56494 11.8793 4.03545 11.7167L9.28485 9.90357C9.57516 9.8033 9.8033 9.57517 9.90357 9.28485L11.7167 4.03545C11.8793 3.56494 12.3631 3.28561 12.8518 3.38012L18.3045 4.43456C18.6061 4.49288 18.9177 4.40937 19.1497 4.20809L23.3447 0.568563Z" fill="#FFF705"/>
</svg>
